# xmcd CD database file
#
# Track frame offsets:
#	183
#	12335
#	26855
#	42033
#	52760
#	65035
#	80040
#	94498
#	105913
#	121500
#	134565
#	146800
#	158638
#	170283
#	178765
#	194185
#
# Disc length: 2792 seconds
#
# Revision: 0
# Processed by: cddbd v1.4PL0 Copyright (c) Steve Scherf et al.
# Submitted via: CDex 1.50beta9
#
DISCID=de0ae610
DTITLE=John William - sans titre, collection Emi préférences
DYEAR=1991
DGENRE=Blues
TTITLE0=Si toi aussi tu m'abandonnes
TTITLE1=Je suis nègre
TTITLE2=Kalou
TTITLE3=Hé! Jo
TTITLE4=Golgotha
TTITLE5=La fontaine des amours
TTITLE6=Du haut du sacré-coeur
TTITLE7=Day O
TTITLE8=Mississippi
TTITLE9=Vaya con dios
TTITLE10=Devil eyes
TTITLE11=Cindy, oh cindy
TTITLE12=Seize tonnes
TTITLE13=Tu n'as pas le droit
TTITLE14=Une ile au soleil
TTITLE15=Toi, dans la chapelle
EXTD=YEAR: 1991
EXTT0=
EXTT1=
EXTT2=
EXTT3=
EXTT4=
EXTT5=
EXTT6=
EXTT7=
EXTT8=
EXTT9=
EXTT10=
EXTT11=
EXTT12=
EXTT13=
EXTT14=
EXTT15=
PLAYORDER=
